<?xml version="1.0" encoding="iso-8859-1"?>
<!-- Generator: Adobe Illustrator 19.0.0, SVG Export Plug-In . SVG Version: 6.00 Build 0)  -->
<svg version="1.1" id="Layer_1" xmlns="http://www.w3.org/2000/svg" xmlns:xlink="http://www.w3.org/1999/xlink" x="0px" y="0px"
	 viewBox="0 0 512 512" style="enable-background:new 0 0 512 512;" xml:space="preserve">
<polygon style="fill:#ffd740;" points="438.488,344.984 120.064,344.984 65.305,71.187 0,71.187 0,30.118 98.973,30.118
	153.733,303.914 410.282,303.914 473.668,139.109 512,153.853 "/>
<path style="fill:#673ab7;" d="M191.658,481.882c-33.969,0-61.604-27.636-61.604-61.604s27.636-61.604,61.604-61.604
	s61.604,27.636,61.604,61.604S225.626,481.882,191.658,481.882z M191.658,399.743c-11.323,0-20.535,9.212-20.535,20.535
	c0,11.323,9.212,20.535,20.535,20.535s20.535-9.212,20.535-20.535C212.193,408.955,202.981,399.743,191.658,399.743z"/>
<path style="fill:#673ab7;" d="M369.626,481.882c-33.969,0-61.604-27.636-61.604-61.604s27.636-61.604,61.604-61.604
	s61.604,27.636,61.604,61.604S403.594,481.882,369.626,481.882z M369.626,399.743c-11.323,0-20.535,9.212-20.535,20.535
	c0,11.323,9.212,20.535,20.535,20.535c11.323,0,20.535-9.212,20.535-20.535C390.16,408.955,380.949,399.743,369.626,399.743z"/>
<path style="fill:#673ab7;" d="M383.316,149.329c0,16.264-2.403,31.233-7.208,44.91c-4.805,13.676-11.458,25.504-19.96,35.484
	c-8.501,9.979-18.609,17.742-30.309,23.286c-11.706,5.544-24.338,8.317-37.887,8.317c-13.803,0-26.491-2.772-38.071-8.317
	c-11.586-5.544-21.623-13.307-30.124-23.286c-8.501-9.98-15.155-21.808-19.96-35.484c-4.805-13.676-7.208-28.646-7.208-44.91
	s2.403-31.233,7.208-44.91s11.458-25.504,19.96-35.484c8.501-9.98,18.539-17.8,30.124-23.471c11.58-5.666,24.268-8.501,38.071-8.501
	c13.549,0,26.18,2.835,37.887,8.501c11.701,5.672,21.808,13.491,30.309,23.471c8.501,9.98,15.155,21.808,19.96,35.484
	C380.913,118.095,383.316,133.065,383.316,149.329z M333.416,149.329c0-9.853-1.109-18.91-3.327-27.167
	c-2.218-8.252-5.36-15.339-9.425-21.253c-4.066-5.914-8.871-10.47-14.415-13.676c-5.544-3.199-11.643-4.805-18.296-4.805
	c-6.901,0-13.122,1.606-18.666,4.805c-5.544,3.206-10.35,7.762-14.415,13.676c-4.066,5.914-7.208,13-9.425,21.253
	c-2.218,8.259-3.327,17.315-3.327,27.167c0,9.858,1.109,18.851,3.327,26.983c2.218,8.132,5.36,15.155,9.425,21.069
	c4.066,5.914,8.871,10.475,14.415,13.676c5.544,3.205,11.765,4.805,18.666,4.805c6.653,0,12.752-1.6,18.296-4.805
	c5.544-3.199,10.35-7.762,14.415-13.676c4.066-5.914,7.208-12.937,9.425-21.069C332.307,168.18,333.416,159.187,333.416,149.329z"/>
<polygon style="fill:#ffd740;" points="473.668,139.109 410.282,303.914 287.487,303.914 287.487,344.984 438.488,344.984
	512,153.853 "/>
<path style="fill:#673ab7;" d="M376.108,104.419c-4.805-13.676-11.458-25.504-19.96-35.484c-8.501-9.98-18.609-17.8-30.309-23.471
	c-11.706-5.666-24.338-8.501-37.887-8.501c-0.157,0-0.309,0.011-0.465,0.012V82.44c0.156-0.001,0.308-0.014,0.465-0.014
	c6.653,0,12.752,1.606,18.296,4.805c5.544,3.206,10.35,7.762,14.415,13.676s7.208,13.001,9.425,21.253
	c2.218,8.259,3.327,17.315,3.327,27.167c0,9.858-1.109,18.851-3.327,26.983c-2.218,8.132-5.36,15.155-9.425,21.069
	c-4.066,5.914-8.871,10.475-14.415,13.676c-5.544,3.205-11.643,4.805-18.296,4.805c-0.157,0-0.309-0.012-0.465-0.014v45.465
	c0.156,0.001,0.309,0.012,0.465,0.012c13.549,0,26.18-2.772,37.887-8.317c11.701-5.544,21.808-13.307,30.309-23.286
	c8.501-9.98,15.155-21.808,19.96-35.484c4.805-13.676,7.208-28.646,7.208-44.91C383.316,133.065,380.913,118.095,376.108,104.419z"
	/>
<g>
</g>
<g>
</g>
<g>
</g>
<g>
</g>
<g>
</g>
<g>
</g>
<g>
</g>
<g>
</g>
<g>
</g>
<g>
</g>
<g>
</g>
<g>
</g>
<g>
</g>
<g>
</g>
<g>
</g>
</svg>
